<svg width="26" height="26" viewBox="0 0 26 26" fill="none" xmlns="http://www.w3.org/2000/svg">
<path d="M16.3333 8.33329V5.99996C16.3333 5.38112 16.0875 4.78763 15.6499 4.35004C15.2123 3.91246 14.6188 3.66663 14 3.66663H5.83333C5.21449 3.66663 4.621 3.91246 4.18342 4.35004C3.74583 4.78763 3.5 5.38112 3.5 5.99996V20C3.5 20.6188 3.74583 21.2123 4.18342 21.6499C4.621 22.0875 5.21449 22.3333 5.83333 22.3333H14C14.6188 22.3333 15.2123 22.0875 15.6499 21.6499C16.0875 21.2123 16.3333 20.6188 16.3333 20V17.6666" stroke="white" stroke-width="2.5" stroke-linecap="round" stroke-linejoin="round"/>
<path d="M10.5 13H24.5M24.5 13L21 9.5M24.5 13L21 16.5" stroke="white" stroke-width="2.5" stroke-linecap="round" stroke-linejoin="round"/>
</svg>
